<?xml version="1.0" encoding="UTF-8" standalone="no"?>
<!-- Generator: Adobe Illustrator 19.0.0, SVG Export Plug-In . SVG Version: 6.00 Build 0)  -->

<svg
   xmlns:dc="http://purl.org/dc/elements/1.1/"
   xmlns:cc="http://creativecommons.org/ns#"
   xmlns:rdf="http://www.w3.org/1999/02/22-rdf-syntax-ns#"
   xmlns:svg="http://www.w3.org/2000/svg"
   xmlns="http://www.w3.org/2000/svg"
   xmlns:sodipodi="http://sodipodi.sourceforge.net/DTD/sodipodi-0.dtd"
   xmlns:inkscape="http://www.inkscape.org/namespaces/inkscape"
   inkscape:version="0.92.3 (2405546, 2018-03-11)"
   sodipodi:docname="Alarms.svg"
   xml:space="preserve"
   style="enable-background:new 0 0 489.068 489.068;"
   viewBox="0 0 489.068 489.068"
   y="0px"
   x="0px"
   id="Layer_1"
   version="1.1"><metadata
   id="metadata47"><rdf:RDF><cc:Work
       rdf:about=""><dc:format>image/svg+xml</dc:format><dc:type
         rdf:resource="http://purl.org/dc/dcmitype/StillImage" /></cc:Work></rdf:RDF></metadata><defs
   id="defs45" /><sodipodi:namedview
   inkscape:current-layer="g10"
   inkscape:window-maximized="1"
   inkscape:window-y="-8"
   inkscape:window-x="1912"
   inkscape:cy="244.534"
   inkscape:cx="-65.27814"
   inkscape:zoom="0.48255049"
   showgrid="false"
   id="namedview43"
   inkscape:window-height="1017"
   inkscape:window-width="1920"
   inkscape:pageshadow="2"
   inkscape:pageopacity="0"
   guidetolerance="10"
   gridtolerance="10"
   objecttolerance="10"
   borderopacity="1"
   bordercolor="#666666"
   pagecolor="#ffffff" />
<g
   id="g10"
   transform="translate(-4.5574613e-6)">
	<g
   id="g8"
   style="fill:#ffffff">
		<path
   d="m 486.011,456.66 -222.6,-445.2 c -7.8,-14.5 -29.9,-15.9 -37.5,0 l -223.6,448.4 c -6.4,9.8 0.7,29.1 18.7,29.1 h 447.3 c 16.2,1.2 26.1,-18.1 17.7,-32.3 z m -432.8,-8.3 191.5,-382.8 190.4,382.8 z"
   id="path2"
   inkscape:connector-curvature="0"
   style="fill:#ffffff" />
		<path
   d="m 223.911,177.86 v 125.9 c 0,11.4 9.4,20.8 20.8,20.8 11.4,0 19.8,-9.4 20.8,-20.8 v -125.9 c 0,-11.4 -9.4,-20.8 -20.8,-20.8 -11.4,0 -20.8,9.4 -20.8,20.8 z"
   id="path4"
   inkscape:connector-curvature="0"
   style="fill:#ffffff" />
		<path
   d="m 244.711,347.46 c -11.4,0 -20.8,9.4 -20.8,20.8 v 13.5 c 0,11.4 9.4,20.8 20.8,20.8 11.4,0 19.8,-9.4 20.8,-20.8 v -13.5 c 0,-11.4 -9.4,-20.8 -20.8,-20.8 z"
   id="path6"
   inkscape:connector-curvature="0"
   style="fill:#ffffff" />
	</g>
</g>
<g
   id="g12">
</g>
<g
   id="g14">
</g>
<g
   id="g16">
</g>
<g
   id="g18">
</g>
<g
   id="g20">
</g>
<g
   id="g22">
</g>
<g
   id="g24">
</g>
<g
   id="g26">
</g>
<g
   id="g28">
</g>
<g
   id="g30">
</g>
<g
   id="g32">
</g>
<g
   id="g34">
</g>
<g
   id="g36">
</g>
<g
   id="g38">
</g>
<g
   id="g40">
</g>
</svg>