<?xml version="1.0" encoding="UTF-8" standalone="no"?>
<!-- Created with Inkscape (http://www.inkscape.org/) -->

<svg
   xmlns:dc="http://purl.org/dc/elements/1.1/"
   xmlns:cc="http://creativecommons.org/ns#"
   xmlns:rdf="http://www.w3.org/1999/02/22-rdf-syntax-ns#"
   xmlns:svg="http://www.w3.org/2000/svg"
   xmlns="http://www.w3.org/2000/svg"
   xmlns:xlink="http://www.w3.org/1999/xlink"
   xmlns:sodipodi="http://sodipodi.sourceforge.net/DTD/sodipodi-0.dtd"
   xmlns:inkscape="http://www.inkscape.org/namespaces/inkscape"
   version="1.1"
   id="svg10"
   xml:space="preserve"
   width="257.11325"
   height="353.95114"
   viewBox="0 0 257.11325 353.95114"
   sodipodi:docname="logos.svg"
   inkscape:version="0.92.3 (2405546, 2018-03-11)"><metadata
     id="metadata16"><rdf:RDF><cc:Work
         rdf:about=""><dc:format>image/svg+xml</dc:format><dc:type
           rdf:resource="http://purl.org/dc/dcmitype/StillImage" /><dc:title></dc:title></cc:Work></rdf:RDF></metadata><defs
     id="defs14"><clipPath
       clipPathUnits="userSpaceOnUse"
       id="clipPath30"><path
         d="M 0,130 H 185 V 0 H 0 Z"
         id="path28"
         inkscape:connector-curvature="0" /></clipPath><clipPath
       clipPathUnits="userSpaceOnUse"
       id="clipPath5159"><use
         x="0"
         y="0"
         xlink:href="#g5155"
         id="use5161"
         width="100%"
         height="100%"
         transform="matrix(3.0626295,0,0,3.0626295,-156.19154,-162.13213)" /></clipPath></defs><sodipodi:namedview
     pagecolor="#ffffff"
     bordercolor="#666666"
     borderopacity="1"
     objecttolerance="10"
     gridtolerance="10"
     guidetolerance="10"
     inkscape:pageopacity="0"
     inkscape:pageshadow="2"
     inkscape:window-width="1920"
     inkscape:window-height="1017"
     id="namedview12"
     showgrid="false"
     inkscape:zoom="1.5059727"
     inkscape:cx="158.07902"
     inkscape:cy="180.60312"
     inkscape:window-x="-8"
     inkscape:window-y="-8"
     inkscape:window-maximized="1"
     inkscape:current-layer="layer1" /><g
     inkscape:groupmode="layer"
     id="layer1"
     inkscape:label="background"
     style="display:none"
     transform="translate(-85.850983,234.30319)"><rect
       style="fill:#000080;stroke-width:1.55155289"
       id="rect133"
       width="257.11325"
       height="353.95114"
       x="85.850983"
       y="-234.30319" /></g><g
     id="g18"
     inkscape:groupmode="layer"
     inkscape:label="tri_logo_a_pos_10mm_white"
     transform="matrix(1.3333333,0,0,-1.3333333,-85.850983,407.63652)"
     style="display:inline"><g
   id="use5095"
   inkscape:label="Clip"
   transform="matrix(5.1975268,0,0,4.8077714,-555.424,-372.06205)"><g
     id="g5714"
     transform="matrix(0.28779803,0,0,0.29435921,121.92541,98.815837)"><path
       d="M 0,0 V -25.282 H -3.42 V 0 H -8.191 V 3.065 H 4.73 V 0 Z"
       style="fill:#ffffff;fill-opacity:1;fill-rule:nonzero;stroke:none"
       id="path5712"
       inkscape:connector-curvature="0" /></g><g
     id="g5818"
     transform="matrix(0.28779803,0,0,0.29435921,111.30221,78.41645)"><g
       id="g5816"
       clip-path="url(#clipPath30)"><g
         id="g5718"
         transform="translate(55.015,44.019)"><path
           d="M 0,0 -3.896,12.183 H -6.998 V 0 h -3.418 v 28.347 h 6.4 c 4.294,0 6.679,-1.872 6.679,-8.082 0,-3.94 -0.954,-6.25 -3.417,-7.404 L 3.578,0 Z M -3.977,25.282 H -6.998 V 15.209 h 3.021 c 2.626,0 3.223,2.03 3.223,5.056 0,2.985 -0.597,5.017 -3.223,5.017"
           style="fill:#ffffff;fill-opacity:1;fill-rule:nonzero;stroke:none"
           id="path5716"
           inkscape:connector-curvature="0" /></g><path
         d="m 63.174,44.019 h 3.419 v 28.347 h -3.419 z"
         style="fill:#ffffff;fill-opacity:1;fill-rule:nonzero;stroke:none"
         id="path5720"
         inkscape:connector-curvature="0" /><g
         id="g5724"
         transform="translate(83.649,44.019)"><path
           d="M 0,0 -7.315,19.39 V 0 h -3.419 v 28.347 h 3.181 L -0.278,8.959 -0.318,28.347 H 3.103 V 0 Z"
           style="fill:#ffffff;fill-opacity:1;fill-rule:nonzero;stroke:none"
           id="path5722"
           inkscape:connector-curvature="0" /></g><g
         id="g5728"
         transform="translate(103.076,44.019)"><path
           d="m 0,0 -1.351,6.689 h -6.56 L -9.265,0 h -3.577 l 6.6,28.347 h 3.3 L 3.618,0 Z M -4.611,22.812 -7.276,9.754 h 5.286 z"
           style="fill:#ffffff;fill-opacity:1;fill-rule:nonzero;stroke:none"
           id="path5726"
           inkscape:connector-curvature="0" /></g><g
         id="g5732"
         transform="translate(124.568,44.019)"><path
           d="M 0,0 V 20.187 L -4.492,6.928 h -2.107 l -4.413,12.941 V 0 h -3.419 v 28.347 h 3.221 L -5.484,12.582 0.2,28.347 H 3.419 V 0 Z"
           style="fill:#ffffff;fill-opacity:1;fill-rule:nonzero;stroke:none"
           id="path5730"
           inkscape:connector-curvature="0" /></g><path
         d="m 134.309,44.019 h 3.419 v 28.347 h -3.419 z"
         style="fill:#ffffff;fill-opacity:1;fill-rule:nonzero;stroke:none"
         id="path5734"
         inkscape:connector-curvature="0" /><g
         id="g5738"
         transform="translate(154.093,45.255)"><path
           d="m 0,0 c -1.113,-1.035 -2.465,-1.553 -4.372,-1.553 -2.266,0 -3.779,0.835 -4.85,2.03 -1.95,2.152 -2.068,5.374 -2.068,12.462 0,7.085 0.118,10.311 2.068,12.46 1.071,1.195 2.584,2.03 4.85,2.03 1.949,0 3.378,-0.596 4.491,-1.672 1.313,-1.274 1.989,-3.303 2.03,-5.653 h -3.421 c 0,1.235 -0.236,2.468 -0.876,3.264 -0.473,0.598 -1.151,0.996 -2.224,0.996 -1.113,0 -1.829,-0.438 -2.306,-1.075 -0.995,-1.354 -1.194,-3.623 -1.194,-10.35 0,-6.728 0.199,-8.998 1.194,-10.351 0.477,-0.637 1.193,-1.075 2.306,-1.075 1.073,0 1.751,0.438 2.224,1.036 0.64,0.795 0.915,1.99 0.915,3.223 H 2.186 C 2.149,3.383 1.391,1.273 0,0"
           style="fill:#ffffff;fill-opacity:1;fill-rule:nonzero;stroke:none"
           id="path5736"
           inkscape:connector-curvature="0" /></g><g
         id="g5742"
         transform="translate(92.779,108.956)"><path
           d="m 0,0 4.061,-7.033 c 0.803,0.973 1.285,2.22 1.285,3.579 0,3.108 -2.518,5.626 -5.625,5.626 -3.106,0 -5.626,-2.518 -5.626,-5.626 0,-1.36 0.483,-2.606 1.286,-3.58 L -0.558,0 C -0.405,0.266 -0.153,0.266 0,0"
           style="fill:#ffffff;fill-opacity:1;fill-rule:nonzero;stroke:none"
           id="path5740"
           inkscape:connector-curvature="0" /></g><g
         id="g5746"
         transform="translate(77.19,82.922)"><path
           d="M 0,0 4.057,7.029 C 3.755,7.079 3.448,7.112 3.131,7.112 0.025,7.111 -2.495,4.594 -2.496,1.487 -2.495,-1.621 0.025,-4.14 3.132,-4.138 5.543,-4.14 7.596,-2.617 8.395,-0.483 H 0.278 C -0.028,-0.483 -0.155,-0.266 0,0"
           style="fill:#ffffff;fill-opacity:1;fill-rule:nonzero;stroke:none"
           id="path5744"
           inkscape:connector-curvature="0" /></g><g
         id="g5750"
         transform="translate(104.68,90.033)"><path
           d="M 0,0 C -0.317,0 -0.625,-0.033 -0.927,-0.083 L 3.13,-7.111 C 3.284,-7.377 3.158,-7.594 2.851,-7.594 H -5.265 C -4.467,-9.728 -2.413,-11.252 0,-11.25 3.106,-11.251 5.625,-8.733 5.626,-5.626 5.624,-2.519 3.106,0.001 0,0"
           style="fill:#ffffff;fill-opacity:1;fill-rule:nonzero;stroke:none"
           id="path5748"
           inkscape:connector-curvature="0" /></g><g
         id="g5754"
         transform="translate(79.758,84.875)"><path
           d="M 0,0 12.057,6.96 V 20.88 Z"
           style="fill:#ffffff;fill-opacity:1;fill-rule:nonzero;stroke:none"
           id="path5752"
           inkscape:connector-curvature="0" /></g><g
         id="g5758"
         transform="translate(80.443,83.687)"><path
           d="M 0,0 H 24.114 L 12.057,6.96 Z"
           style="fill:#ffffff;fill-opacity:1;fill-rule:nonzero;stroke:none"
           id="path5756"
           inkscape:connector-curvature="0" /></g><g
         id="g5762"
         transform="translate(105.242,84.875)"><path
           d="M 0,0 -12.057,20.882 V 6.96 Z"
           style="fill:#ffffff;fill-opacity:1;fill-rule:nonzero;stroke:none"
           id="path5760"
           inkscape:connector-curvature="0" /></g><g
         id="g5766"
         transform="translate(50.438,28.43)"><path
           d="M 0,0 V 4.36 L -1.02,2.215 H -2.333 L -3.382,4.379 V 0 h -1.327 v 7.086 h 1.327 L -1.677,3.611 0,7.086 H 1.326 V 0 Z"
           style="fill:#ffffff;fill-opacity:1;fill-rule:nonzero;stroke:none"
           id="path5764"
           inkscape:connector-curvature="0" /></g><g
         id="g5770"
         transform="translate(60.008,31.973)"><path
           d="m 0,0 c 0,-0.617 -0.069,-1.153 -0.207,-1.609 -0.138,-0.456 -0.335,-0.834 -0.591,-1.136 -0.256,-0.302 -0.562,-0.526 -0.92,-0.674 -0.358,-0.148 -0.754,-0.221 -1.187,-0.221 -0.433,0 -0.829,0.073 -1.186,0.221 -0.357,0.148 -0.664,0.372 -0.92,0.674 -0.256,0.302 -0.453,0.68 -0.591,1.136 -0.138,0.456 -0.207,0.992 -0.207,1.609 0,0.616 0.069,1.152 0.207,1.609 0.138,0.455 0.335,0.834 0.591,1.136 0.256,0.301 0.563,0.526 0.92,0.674 0.357,0.148 0.753,0.221 1.186,0.221 0.433,0 0.829,-0.073 1.187,-0.221 C -1.36,3.271 -1.054,3.046 -0.798,2.745 -0.542,2.443 -0.345,2.064 -0.207,1.609 -0.069,1.152 0,0.616 0,0 m -1.375,0 c 0,1.672 -0.51,2.508 -1.53,2.508 -1.019,0 -1.529,-0.836 -1.529,-2.508 0,-1.672 0.51,-2.508 1.529,-2.508 1.02,0 1.53,0.836 1.53,2.508"
           style="fill:#ffffff;fill-opacity:1;fill-rule:nonzero;stroke:none"
           id="path5768"
           inkscape:connector-curvature="0" /></g><g
         id="g5774"
         transform="translate(64.618,34.335)"><path
           d="M 0,0 V -5.905 H -1.327 V 0 h -1.77 V 1.181 H 1.771 V 0 Z"
           style="fill:#ffffff;fill-opacity:1;fill-rule:nonzero;stroke:none"
           id="path5772"
           inkscape:connector-curvature="0" /></g><g
         id="g5778"
         transform="translate(68.152,28.43)"><path
           d="M 0,0 V 0.841 H 1.181 V 6.245 H 0 V 7.086 H 3.688 V 6.245 H 2.507 V 0.841 H 3.688 V 0 Z"
           style="fill:#ffffff;fill-opacity:1;fill-rule:nonzero;stroke:none"
           id="path5776"
           inkscape:connector-curvature="0" /></g><g
         id="g5782"
         transform="translate(79.465,31.973)"><path
           d="m 0,0 c 0,-0.617 -0.069,-1.153 -0.207,-1.609 -0.138,-0.456 -0.334,-0.834 -0.59,-1.136 -0.256,-0.302 -0.563,-0.526 -0.921,-0.674 -0.357,-0.148 -0.753,-0.221 -1.186,-0.221 -0.433,0 -0.829,0.073 -1.187,0.221 -0.357,0.148 -0.664,0.372 -0.92,0.674 -0.256,0.302 -0.453,0.68 -0.591,1.136 -0.137,0.456 -0.207,0.992 -0.207,1.609 0,0.616 0.07,1.152 0.207,1.609 0.138,0.455 0.335,0.834 0.591,1.136 0.256,0.301 0.563,0.526 0.92,0.674 0.358,0.148 0.754,0.221 1.187,0.221 0.433,0 0.829,-0.073 1.186,-0.221 C -1.36,3.271 -1.053,3.046 -0.797,2.745 -0.541,2.443 -0.345,2.064 -0.207,1.609 -0.069,1.152 0,0.616 0,0 m -1.375,0 c 0,1.672 -0.51,2.508 -1.529,2.508 -1.019,0 -1.529,-0.836 -1.529,-2.508 0,-1.672 0.51,-2.508 1.529,-2.508 1.019,0 1.529,0.836 1.529,2.508"
           style="fill:#ffffff;fill-opacity:1;fill-rule:nonzero;stroke:none"
           id="path5780"
           inkscape:connector-curvature="0" /></g><g
         id="g5786"
         transform="translate(85.62,28.43)"><path
           d="M 0,0 -2.394,4.31 V 0 h -1.328 v 7.086 h 1.328 L 0,2.765 V 7.086 H 1.326 V 0 Z"
           style="fill:#ffffff;fill-opacity:1;fill-rule:nonzero;stroke:none"
           id="path5784"
           inkscape:connector-curvature="0" /></g><g
         id="g5790"
         transform="translate(97.031,28.548)"><path
           d="m 0,0 c -0.15,-0.032 -0.372,-0.077 -0.664,-0.131 -0.291,-0.057 -0.639,-0.084 -1.038,-0.084 -0.406,0 -0.795,0.067 -1.165,0.201 -0.37,0.135 -0.696,0.348 -0.976,0.64 -0.281,0.291 -0.504,0.668 -0.672,1.132 -0.168,0.462 -0.253,1.018 -0.253,1.667 0,0.649 0.085,1.205 0.253,1.668 0.168,0.462 0.391,0.839 0.672,1.131 0.28,0.293 0.606,0.504 0.976,0.64 0.37,0.133 0.759,0.201 1.165,0.201 0.399,0 0.747,-0.028 1.038,-0.084 C -0.372,6.926 -0.15,6.881 0,6.849 V 5.707 c -0.098,0.02 -0.21,0.04 -0.335,0.059 -0.124,0.02 -0.256,0.039 -0.398,0.055 -0.14,0.016 -0.284,0.03 -0.428,0.044 -0.144,0.012 -0.281,0.019 -0.412,0.019 -0.224,0 -0.442,-0.037 -0.655,-0.113 C -2.44,5.695 -2.63,5.564 -2.794,5.378 -2.958,5.189 -3.09,4.938 -3.192,4.619 -3.293,4.301 -3.345,3.902 -3.345,3.423 c 0,-0.486 0.052,-0.884 0.153,-1.197 0.102,-0.311 0.234,-0.56 0.398,-0.748 0.164,-0.186 0.354,-0.315 0.566,-0.388 0.213,-0.073 0.431,-0.108 0.655,-0.108 0.131,0 0.268,0.007 0.412,0.019 0.144,0.014 0.288,0.031 0.428,0.05 C -0.591,1.07 -0.459,1.09 -0.335,1.11 -0.21,1.129 -0.098,1.149 0,1.169 V 0"
           style="fill:#ffffff;fill-opacity:1;fill-rule:nonzero;stroke:none"
           id="path5788"
           inkscape:connector-curvature="0" /></g><g
         id="g5794"
         transform="translate(104.745,31.973)"><path
           d="m 0,0 c 0,-0.617 -0.069,-1.153 -0.206,-1.609 -0.139,-0.456 -0.336,-0.834 -0.592,-1.136 -0.256,-0.302 -0.562,-0.526 -0.92,-0.674 -0.358,-0.148 -0.754,-0.221 -1.186,-0.221 -0.433,0 -0.829,0.073 -1.187,0.221 -0.357,0.148 -0.664,0.372 -0.921,0.674 -0.255,0.302 -0.452,0.68 -0.59,1.136 -0.138,0.456 -0.207,0.992 -0.207,1.609 0,0.616 0.069,1.152 0.207,1.609 0.138,0.455 0.335,0.834 0.59,1.136 0.257,0.301 0.564,0.526 0.921,0.674 0.358,0.148 0.754,0.221 1.187,0.221 0.432,0 0.828,-0.073 1.186,-0.221 C -1.36,3.271 -1.054,3.046 -0.798,2.745 -0.542,2.443 -0.345,2.064 -0.206,1.609 -0.069,1.152 0,0.616 0,0 m -1.375,0 c 0,1.672 -0.51,2.508 -1.529,2.508 -1.02,0 -1.529,-0.836 -1.529,-2.508 0,-1.672 0.509,-2.508 1.529,-2.508 1.019,0 1.529,0.836 1.529,2.508"
           style="fill:#ffffff;fill-opacity:1;fill-rule:nonzero;stroke:none"
           id="path5792"
           inkscape:connector-curvature="0" /></g><g
         id="g5798"
         transform="translate(110.899,28.43)"><path
           d="M 0,0 -2.394,4.31 V 0 h -1.327 v 7.086 h 1.327 L 0,2.765 V 7.086 H 1.327 V 0 Z"
           style="fill:#ffffff;fill-opacity:1;fill-rule:nonzero;stroke:none"
           id="path5796"
           inkscape:connector-curvature="0" /></g><g
         id="g5802"
         transform="translate(117.509,34.335)"><path
           d="M 0,0 V -5.905 H -1.327 V 0 H -3.098 V 1.181 H 1.77 V 0 Z"
           style="fill:#ffffff;fill-opacity:1;fill-rule:nonzero;stroke:none"
           id="path5800"
           inkscape:connector-curvature="0" /></g><g
         id="g5806"
         transform="translate(124.869,28.43)"><path
           d="M 0,0 -1.608,3.09 H -2.093 V 0 H -3.42 v 7.086 h 2.373 c 0.323,0 0.618,-0.033 0.886,-0.098 C 0.109,6.922 0.342,6.814 0.539,6.663 0.735,6.512 0.888,6.312 0.996,6.062 1.105,5.813 1.159,5.505 1.159,5.137 1.159,4.573 1.03,4.141 0.776,3.838 0.521,3.536 0.19,3.33 -0.216,3.218 L 1.456,0 Z m -0.216,5.114 c 0,0.317 -0.091,0.535 -0.272,0.657 -0.181,0.122 -0.449,0.183 -0.805,0.183 h -0.8 V 4.206 h 0.622 c 0.455,0 0.778,0.068 0.968,0.202 0.191,0.135 0.287,0.371 0.287,0.706"
           style="fill:#ffffff;fill-opacity:1;fill-rule:nonzero;stroke:none"
           id="path5804"
           inkscape:connector-curvature="0" /></g><g
         id="g5810"
         transform="translate(133.975,31.973)"><path
           d="m 0,0 c 0,-0.617 -0.07,-1.153 -0.208,-1.609 -0.137,-0.456 -0.334,-0.834 -0.59,-1.136 -0.256,-0.302 -0.563,-0.526 -0.921,-0.674 -0.358,-0.148 -0.753,-0.221 -1.186,-0.221 -0.434,0 -0.828,0.073 -1.186,0.221 -0.358,0.148 -0.665,0.372 -0.92,0.674 -0.257,0.302 -0.453,0.68 -0.591,1.136 -0.139,0.456 -0.207,0.992 -0.207,1.609 0,0.616 0.068,1.152 0.207,1.609 0.138,0.455 0.334,0.834 0.591,1.136 0.255,0.301 0.562,0.526 0.92,0.674 0.358,0.148 0.752,0.221 1.186,0.221 0.433,0 0.828,-0.073 1.186,-0.221 0.358,-0.148 0.665,-0.373 0.921,-0.674 0.256,-0.302 0.453,-0.681 0.59,-1.136 C -0.07,1.152 0,0.616 0,0 m -1.376,0 c 0,1.672 -0.51,2.508 -1.529,2.508 -1.019,0 -1.529,-0.836 -1.529,-2.508 0,-1.672 0.51,-2.508 1.529,-2.508 1.019,0 1.529,0.836 1.529,2.508"
           style="fill:#ffffff;fill-opacity:1;fill-rule:nonzero;stroke:none"
           id="path5808"
           inkscape:connector-curvature="0" /></g><g
         id="g5814"
         transform="translate(136.407,28.43)"><path
           d="M 0,0 V 7.086 H 1.327 V 1.132 H 3.491 V 0 Z"
           style="fill:#ffffff;fill-opacity:1;fill-rule:nonzero;stroke:none"
           id="path5812"
           inkscape:connector-curvature="0" /></g></g></g></g><g
   id="g5155"
   inkscape:label="Clip"
   transform="matrix(0.93553042,0,0,0.81680433,76.417773,222.65676)"><path
     inkscape:connector-curvature="0"
     d="m 139.85973,49.139391 -12.32925,2.29275 c -0.3,0.05625 -0.6285,0.33825 -0.72975,0.62775 l -3.77925,8.817 c -0.141,0.27225 -0.114,0.69975 0.06,0.95325 l 7.1835,10.47 c 0.17175,0.252 0.138,0.63525 -0.0787,0.852 l -8.97225,8.972246 c -0.21675,0.21675 -0.59925,0.252 -0.85125,0.0787 l -10.65375,-7.310996 c -0.252,-0.17325 -0.684,-0.204 -0.95775,-0.069 l -8.547,3.498746 c -0.290249,0.096 -0.572999,0.42075 -0.629999,0.7215 l -2.37375,12.75225 c -0.05555,0.3008 -0.3518,0.5468 -0.6578,0.5468 H 83.85273 c -0.30525,0 -0.6015,-0.246 -0.657,-0.54675 l -2.373,-12.75225 c -0.057,-0.30075 -0.339,-0.6255 -0.63,-0.7215 l -8.54775,-3.498746 c -0.2745,-0.135 -0.7065,-0.10425 -0.95775,0.069 l -10.653,7.310996 c -0.25275,0.17325 -0.636,0.138 -0.852,-0.0787 l -8.973,-8.972246 c -0.216,-0.21675 -0.252,-0.6 -0.07875,-0.852 l 7.18425,-10.47 c 0.1725,-0.2535 0.1995,-0.681 0.05925,-0.95325 l -3.78,-8.817 c -0.1005,-0.2895 -0.42825,-0.5715 -0.72975,-0.62775 l -12.328501,-2.2928 c -0.3015,-0.057 -0.54675,-0.3525 -0.54675,-0.6585 l 7.5e-4,-12.689251 c 0,-0.306 0.246,-0.60375 0.54675,-0.6585 l 12.026251,-2.238 c 0.30075,-0.05475 0.6225,-0.3405 0.714,-0.63225 l 3.7545,-9.37875 c 0.13425,-0.27525 0.10275,-0.70575 -0.07125,-0.95775 l -6.831,-9.95475 c -0.1725,-0.252 -0.13725,-0.636 0.07875,-0.85275 l 8.97375,-8.9722512 c 0.216,-0.21525 0.59925,-0.2505 0.852,-0.07875 l 9.7785,6.711751 c 0.252,0.1725 0.67425,0.186 0.9375,0.03225 l 4.3125,-2.3025 c 0.273,-0.1395 0.59175,-0.02175 0.70875,0.261 l 8.892,21.4852502 c 0.11775,0.28275 0,0.6435 -0.261,0.80325 l -1.07925,0.66075 c -0.1995,0.1215 -0.47025,0.33075 -0.6825,0.52275 -3.89325,2.493 -6.47625,6.85425 -6.47625,11.82075 0,7.750501 6.2835,14.033251 14.033251,14.033251 7.74975,0 14.032499,-6.28275 14.032499,-14.033251 0,-4.9665 -2.58225,-9.32775 -6.476249,-11.82075 -0.21075,-0.192 -0.48225,-0.40125 -0.681,-0.52275 l -1.07925,-0.66075 c -0.2595,-0.15975 -0.378,-0.5205 -0.261,-0.80325 L 104.62323,6.7696398 c 0.117,-0.28275 0.435,-0.39975 0.70875,-0.261 l 4.3125,2.3025 c 0.264,0.15375 0.6855,0.141 0.9375,-0.03225 l 9.77925,-6.711751 c 0.252,-0.17175 0.636,-0.1365 0.85125,0.07875 l 8.97375,8.9722512 c 0.21675,0.21675 0.252,0.60075 0.0787,0.85275 l -6.83175,9.95475 c -0.1725,0.252 -0.20475,0.6825 -0.0705,0.95775 l 3.7545,9.37875 c 0.0922,0.29175 0.41175,0.5775 0.71325,0.63225 l 12.02625,2.238 c 0.3,0.05475 0.54675,0.3525 0.54675,0.6585 l 0.002,12.689251 c 3e-4,0.30675 -0.2457,0.60225 -0.5457,0.65925"
     id="path352"
     style="fill:#f5ffff;fill-opacity:1;stroke-width:0.75" /></g><text
   xml:space="preserve"
   style="font-style:normal;font-weight:normal;font-size:134.13230896px;line-height:1.25;font-family:sans-serif;letter-spacing:0px;word-spacing:0px;fill:#000000;fill-opacity:1;stroke:none;stroke-width:3.35330749"
   x="93.10833"
   y="-171.6563"
   id="text5165"
   transform="scale(1,-1)"><tspan
     sodipodi:role="line"
     id="tspan5163"
     x="93.10833"
     y="-171.6563"
     style="font-style:normal;font-variant:normal;font-weight:normal;font-stretch:normal;font-size:53.65291977px;font-family:'Open Sans';-inkscape-font-specification:'Open Sans';fill:#ffffff;fill-opacity:1;stroke-width:3.35330749">TOSV</tspan></text>

</g><g
     inkscape:groupmode="layer"
     id="layer3"
     inkscape:label="opensourcehardware"
     transform="translate(-85.850983,234.30319)" /></svg>