<?xml version="1.0" encoding="UTF-8" standalone="no"?>
<svg
   xmlns:dc="http://purl.org/dc/elements/1.1/"
   xmlns:cc="http://creativecommons.org/ns#"
   xmlns:rdf="http://www.w3.org/1999/02/22-rdf-syntax-ns#"
   xmlns:svg="http://www.w3.org/2000/svg"
   xmlns="http://www.w3.org/2000/svg"
   xmlns:sodipodi="http://sodipodi.sourceforge.net/DTD/sodipodi-0.dtd"
   xmlns:inkscape="http://www.inkscape.org/namespaces/inkscape"
   version="1.0"
   width="1147.000000pt"
   height="1280.000000pt"
   viewBox="0 0 1147.000000 1280.000000"
   preserveAspectRatio="xMidYMid meet"
   id="svg8"
   sodipodi:docname="Lunge.svg"
   inkscape:version="0.92.3 (2405546, 2018-03-11)">
  <defs
     id="defs12" />
  <sodipodi:namedview
     pagecolor="#ffffff"
     bordercolor="#666666"
     borderopacity="1"
     objecttolerance="10"
     gridtolerance="10"
     guidetolerance="10"
     inkscape:pageopacity="0"
     inkscape:pageshadow="2"
     inkscape:window-width="690"
     inkscape:window-height="480"
     id="namedview10"
     showgrid="false"
     inkscape:zoom="0.13828125"
     inkscape:cx="764.66667"
     inkscape:cy="853.33333"
     inkscape:window-x="0"
     inkscape:window-y="0"
     inkscape:window-maximized="0"
     inkscape:current-layer="svg8" />
  <metadata
     id="metadata2">
Created by potrace 1.15, written by Peter Selinger 2001-2017
<rdf:RDF>
  <cc:Work
     rdf:about="">
    <dc:format>image/svg+xml</dc:format>
    <dc:type
       rdf:resource="http://purl.org/dc/dcmitype/StillImage" />
  </cc:Work>
</rdf:RDF>
</metadata>
  <g
     transform="matrix(0.1,0,0,-0.1,4.5295667e-7,1280)"
     id="g6"
     style="fill:#000000;stroke:none">
    <path
       d="m 6155,12775 c -77,-14 -152,-25 -166,-25 -14,0 -55,-13 -91,-29 -136,-62 -258,-62 -389,0 -37,18 -77,29 -103,29 -24,0 -92,9 -152,20 -60,11 -142,20 -182,20 -67,0 -76,-2 -101,-28 -74,-73 -69,-416 13,-862 69,-380 107,-564 121,-594 9,-18 50,-74 92,-122 41,-49 83,-107 94,-129 l 18,-40 -31,-63 c -36,-72 -39,-119 -24,-337 7,-97 5,-140 -9,-224 -21,-128 -12,-184 40,-250 45,-56 45,-88 0,-197 -44,-106 -45,-151 -6,-196 l 29,-33 -20,-100 c -25,-129 -22,-242 9,-305 l 22,-45 -19,-55 c -25,-72 -25,-119 2,-256 l 22,-112 -30,-39 -29,-38 3,-130 c 1,-71 -3,-162 -9,-201 -9,-59 -8,-88 6,-174 10,-57 17,-137 17,-179 0,-42 8,-128 19,-192 24,-150 26,-305 2,-338 -24,-36 -19,-97 16,-184 17,-43 31,-93 31,-113 0,-39 -22,-89 -45,-102 -13,-7 -14,-14 -5,-36 13,-35 13,-140 0,-186 -9,-32 -79,-144 -86,-138 -1,2 -32,143 -69,313 -36,171 -95,440 -131,599 -36,159 -92,416 -125,570 -91,426 -105,474 -234,756 -31,69 -81,186 -110,261 -111,285 -213,445 -384,603 -261,243 -633,310 -977,175 -131,-51 -225,-111 -487,-308 C 1739,9041 1156,8377 740,7535 319,6680 121,6103 41,5488 17,5306 9,4887 7,3635 6,2679 9,2245 18,2060 60,1209 80,1036 161,795 298,390 551,115 867,28 c 124,-34 430,-29 953,18 497,44 874,127 1234,270 106,43 587,288 877,447 648,355 1013,718 1178,1169 116,318 148,560 176,1333 17,474 24,566 66,855 59,411 77,750 60,1125 -11,223 -35,533 -46,580 -3,17 14,34 83,87 85,64 89,66 176,78 143,20 229,8 369,-52 l 119,-51 -6,-41 c -15,-106 -37,-384 -47,-601 -17,-375 1,-714 60,-1125 42,-289 49,-381 66,-855 24,-680 47,-897 125,-1176 150,-544 514,-935 1238,-1331 81,-44 154,-86 163,-94 8,-8 31,-19 50,-26 19,-7 149,-72 289,-145 140,-73 305,-152 366,-177 358,-143 736,-226 1234,-270 299,-27 523,-39 700,-40 204,0 277,15 413,86 247,128 432,367 546,703 81,241 101,414 143,1265 9,185 12,619 11,1575 -2,1252 -10,1671 -34,1853 -80,615 -278,1192 -699,2047 -416,842 -999,1506 -1957,2226 -262,197 -356,257 -487,308 -344,135 -716,68 -977,-175 -171,-158 -273,-318 -384,-603 -29,-75 -79,-192 -110,-261 -78,-173 -122,-281 -146,-368 -21,-74 -108,-464 -134,-597 -7,-38 -34,-162 -60,-274 -38,-167 -51,-209 -71,-229 -26,-27 -30,-52 -14,-83 8,-14 -6,-98 -60,-348 -38,-181 -70,-339 -70,-351 0,-32 -19,-20 -72,45 -73,90 -95,187 -67,289 9,33 8,40 -9,52 -27,19 -45,69 -39,108 3,18 17,64 32,101 39,96 42,136 16,180 -28,47 -28,156 -1,320 11,66 20,159 20,207 0,47 7,122 15,165 18,93 19,158 4,220 -9,34 -9,69 0,143 14,114 6,159 -34,203 l -26,27 22,116 c 24,129 23,229 -4,281 -15,28 -15,34 -1,63 26,51 27,101 5,214 -26,134 -26,158 -1,224 25,65 25,107 0,202 -29,112 -27,148 15,203 56,73 62,113 40,270 -17,122 -17,147 -5,265 15,153 10,212 -24,281 -14,28 -26,57 -26,66 0,28 30,75 94,148 111,128 112,129 157,368 118,621 132,723 132,934 1,174 -15,261 -52,299 -31,30 -127,30 -296,1 z"
       id="path4"
       inkscape:connector-curvature="0" />
  </g>
</svg>
