<?xml version="1.0" encoding="UTF-8" standalone="no"?>
<svg
   xmlns:dc="http://purl.org/dc/elements/1.1/"
   xmlns:cc="http://creativecommons.org/ns#"
   xmlns:rdf="http://www.w3.org/1999/02/22-rdf-syntax-ns#"
   xmlns:svg="http://www.w3.org/2000/svg"
   xmlns="http://www.w3.org/2000/svg"
   xmlns:sodipodi="http://sodipodi.sourceforge.net/DTD/sodipodi-0.dtd"
   xmlns:inkscape="http://www.inkscape.org/namespaces/inkscape"
   version="1.0"
   width="1273.000000pt"
   height="1280.000000pt"
   viewBox="0 0 1273.000000 1280.000000"
   preserveAspectRatio="xMidYMid meet"
   id="svg10"
   sodipodi:docname="settings.svg"
   inkscape:version="0.92.4 (5da689c313, 2019-01-14)">
  <defs
     id="defs14" />
  <sodipodi:namedview
     pagecolor="#ffffff"
     bordercolor="#666666"
     borderopacity="1"
     objecttolerance="10"
     gridtolerance="10"
     guidetolerance="10"
     inkscape:pageopacity="0"
     inkscape:pageshadow="2"
     inkscape:window-width="1920"
     inkscape:window-height="1017"
     id="namedview12"
     showgrid="false"
     inkscape:zoom="0.13828125"
     inkscape:cx="848.66667"
     inkscape:cy="853.33333"
     inkscape:window-x="-8"
     inkscape:window-y="-8"
     inkscape:window-maximized="1"
     inkscape:current-layer="svg10" />
  <metadata
     id="metadata2">
Created by potrace 1.15, written by Peter Selinger 2001-2017
<rdf:RDF>
  <cc:Work
     rdf:about="">
    <dc:format>image/svg+xml</dc:format>
    <dc:type
       rdf:resource="http://purl.org/dc/dcmitype/StillImage" />
  </cc:Work>
</rdf:RDF>
</metadata>
  <g
     transform="matrix(0,-0.1,-0.1,0,1276.5,1276.5)"
     id="g8"
     style="fill:#000000;stroke:none">
    <path
       d="m 4250,12798 c 0,-2 -42,-160 -94,-353 l -93,-350 -94,-22 c -158,-38 -329,-84 -423,-116 l -89,-29 -261,261 -261,261 -507,-293 c -279,-161 -509,-295 -513,-298 -5,-5 30,-141 159,-618 l 25,-94 -87,-81 c -109,-101 -176,-168 -277,-277 l -80,-86 -354,94 c -194,52 -355,93 -356,91 -9,-8 -585,-1009 -585,-1016 0,-4 115,-122 257,-264 l 256,-256 -31,-99 c -45,-142 -78,-262 -108,-398 -15,-66 -27,-121 -28,-122 -1,0 -152,-40 -336,-88 C 186,8598 27,8557 18,8554 1,8549 0,8512 0,7956 v -592 l 268,-68 c 147,-38 305,-78 352,-90 l 85,-23 14,-59 c 46,-200 76,-314 113,-432 L 874,6558 613,6304 352,6050 646,5543 c 161,-279 298,-509 304,-511 5,-2 163,39 349,92 l 340,96 232,-232 231,-232 -96,-345 c -76,-273 -93,-348 -83,-357 6,-6 237,-141 512,-299 l 500,-288 255,261 256,261 109,-35 c 128,-42 448,-124 482,-124 30,0 33,-6 88,-225 25,-99 64,-251 87,-337 l 41,-158 h 589 588 l 9,23 c 5,12 45,168 91,347 45,179 87,331 92,338 6,6 19,12 29,12 33,0 343,79 470,120 71,22 126,35 129,30 20,-32 505,-510 514,-506 6,2 236,135 511,294 416,240 500,292 497,309 -1,11 -45,170 -96,354 l -94,334 56,49 c 74,65 285,275 349,349 l 50,58 129,-36 c 333,-94 556,-155 567,-155 11,0 588,983 595,1013 1,7 -114,126 -257,264 l -259,253 39,119 c 42,129 79,271 108,408 l 18,87 309,83 c 170,46 330,88 357,95 l 47,11 v 593 593 l -32,9 c -18,5 -175,46 -348,92 -173,46 -320,87 -326,92 -6,5 -15,27 -18,51 -11,70 -61,265 -107,416 l -42,143 258,258 c 247,247 257,258 245,281 -14,27 -571,992 -576,997 -1,2 -160,-39 -354,-91 l -351,-95 -224,225 -223,224 93,352 c 52,193 92,353 90,355 -1,2 -232,135 -511,297 l -509,294 -261,-261 -262,-260 -93,30 c -143,47 -222,68 -368,101 -74,17 -137,34 -141,38 -4,4 -49,164 -100,356 l -93,347 h -594 c -326,0 -593,-1 -593,-2 z"
       id="path4"
       inkscape:connector-curvature="0" />
    <path
       d="m 9575,5608 c -3,-10 -129,-480 -176,-660 -6,-22 -16,-38 -24,-38 -56,0 -359,-119 -495,-195 l -81,-44 -312,184 -312,185 -243,-243 -243,-243 186,-311 185,-312 -37,-63 c -58,-98 -127,-261 -173,-404 -41,-131 -41,-131 -78,-142 -20,-6 -129,-34 -242,-62 -113,-29 -252,-65 -310,-80 l -105,-27 -3,-344 -2,-344 347,-88 c 192,-49 349,-90 350,-91 2,-1 16,-48 33,-103 37,-125 116,-314 175,-417 l 44,-78 -184,-311 -185,-312 243,-243 243,-243 309,184 308,183 151,-76 c 140,-70 258,-116 397,-155 l 56,-16 62,-242 c 34,-133 75,-289 90,-347 l 28,-105 345,-3 345,-2 7,32 c 4,18 43,175 87,348 l 81,315 149,48 c 94,31 207,77 299,123 l 150,75 312,-181 312,-181 243,243 243,243 -181,312 -181,312 75,149 c 44,89 93,208 122,295 l 47,145 72,20 c 39,10 196,52 349,93 l 277,74 -2,344 -3,344 -345,92 c -208,56 -347,97 -351,106 -4,8 -26,72 -48,144 -24,76 -73,193 -116,281 l -76,152 181,313 181,313 -243,243 -243,242 -315,-183 -314,-183 -58,34 c -117,68 -346,163 -471,194 -27,6 -52,19 -55,28 -4,9 -47,167 -97,351 l -90,335 -343,3 c -269,2 -343,0 -347,-10 z"
       id="path6"
       inkscape:connector-curvature="0" />
  </g>
</svg>
