<?xml version="1.0" encoding="UTF-8" standalone="no"?>
<!-- Created with Inkscape (http://www.inkscape.org/) -->

<svg
   xmlns:dc="http://purl.org/dc/elements/1.1/"
   xmlns:cc="http://creativecommons.org/ns#"
   xmlns:rdf="http://www.w3.org/1999/02/22-rdf-syntax-ns#"
   xmlns:svg="http://www.w3.org/2000/svg"
   xmlns="http://www.w3.org/2000/svg"
   xmlns:sodipodi="http://sodipodi.sourceforge.net/DTD/sodipodi-0.dtd"
   xmlns:inkscape="http://www.inkscape.org/namespaces/inkscape"
   version="1.1"
   id="svg10"
   xml:space="preserve"
   width="245.66667"
   height="171.97333"
   viewBox="0 0 245.66667 171.97333"
   sodipodi:docname="trinamic_logo.svg"
   inkscape:version="0.92.4 (5da689c313, 2019-01-14)"><metadata
     id="metadata16"><rdf:RDF><cc:Work
         rdf:about=""><dc:format>image/svg+xml</dc:format><dc:type
           rdf:resource="http://purl.org/dc/dcmitype/StillImage" /><dc:title></dc:title></cc:Work></rdf:RDF></metadata><defs
     id="defs14" /><sodipodi:namedview
     pagecolor="#ffffff"
     bordercolor="#666666"
     borderopacity="1"
     objecttolerance="10"
     gridtolerance="10"
     guidetolerance="10"
     inkscape:pageopacity="0"
     inkscape:pageshadow="2"
     inkscape:window-width="640"
     inkscape:window-height="480"
     id="namedview12"
     showgrid="false"
     inkscape:zoom="1.3723058"
     inkscape:cx="122.83334"
     inkscape:cy="85.986664"
     inkscape:window-x="0"
     inkscape:window-y="0"
     inkscape:window-maximized="0"
     inkscape:current-layer="g18" /><g
     id="g18"
     inkscape:groupmode="layer"
     inkscape:label="ink_ext_XXXXXX"
     transform="matrix(1.3333333,0,0,-1.3333333,0,171.97333)"><g
       id="g20"
       transform="scale(0.1)"><path
         d="M 365.563,692.18 V 439.367 h -34.2 V 692.18 h -47.711 v 30.652 H 412.859 V 692.18 h -47.296"
         style="fill:#000000;fill-opacity:1;fill-rule:nonzero;stroke:none"
         id="path22"
         inkscape:connector-curvature="0" /><path
         d="M 546.598,439.367 507.633,561.191 H 476.617 V 439.367 h -34.179 v 283.465 h 63.996 c 42.945,0 66.793,-18.719 66.793,-80.82 0,-39.403 -9.539,-62.5 -34.176,-74.043 L 582.375,439.367 Z M 506.824,692.18 H 476.617 V 591.445 h 30.207 c 26.258,0 32.227,20.305 32.227,50.567 0,29.855 -5.969,50.168 -32.227,50.168"
         style="fill:#000000;fill-opacity:1;fill-rule:nonzero;stroke:none"
         id="path24"
         inkscape:connector-curvature="0" /><path
         d="m 628.184,439.367 v 283.465 h 34.195 V 439.367 h -34.195"
         style="fill:#000000;fill-opacity:1;fill-rule:nonzero;stroke:none"
         id="path26"
         inkscape:connector-curvature="0" /><path
         d="M 832.938,439.367 759.785,633.262 V 439.367 H 725.59 v 283.465 h 31.812 l 72.754,-193.887 -0.398,193.887 h 34.207 V 439.367 h -31.027"
         style="fill:#000000;fill-opacity:1;fill-rule:nonzero;stroke:none"
         id="path28"
         inkscape:connector-curvature="0" /><path
         d="m 1027.21,439.367 -13.52,66.883 h -65.596 l -13.543,-66.883 h -35.766 l 66,283.465 h 33.008 L 1063.38,439.367 Z M 981.094,667.48 954.453,536.906 h 52.847 z"
         style="fill:#000000;fill-opacity:1;fill-rule:nonzero;stroke:none"
         id="path30"
         inkscape:connector-curvature="0" /><path
         d="M 1242.13,439.367 V 641.23 l -44.92,-132.585 h -21.08 L 1132,638.047 v -198.68 h -34.19 v 283.465 h 32.21 l 57.27,-157.656 56.84,157.656 h 32.19 V 439.367 h -34.19"
         style="fill:#000000;fill-opacity:1;fill-rule:nonzero;stroke:none"
         id="path32"
         inkscape:connector-curvature="0" /><path
         d="m 1339.53,439.367 v 283.465 h 34.2 V 439.367 h -34.2"
         style="fill:#000000;fill-opacity:1;fill-rule:nonzero;stroke:none"
         id="path34"
         inkscape:connector-curvature="0" /><path
         d="m 1537.38,451.719 c -11.13,-10.352 -24.66,-15.528 -43.73,-15.528 -22.65,0 -37.79,8.352 -48.49,20.305 -19.5,21.512 -20.69,53.738 -20.69,124.617 0,70.852 1.19,103.106 20.69,124.602 10.7,11.941 25.84,20.293 48.49,20.293 19.49,0 33.78,-5.957 44.91,-16.719 13.14,-12.734 19.9,-33.027 20.31,-56.523 h -34.21 c 0,12.343 -2.36,24.675 -8.76,32.632 -4.74,5.981 -11.52,9.965 -22.25,9.965 -11.12,0 -18.29,-4.386 -23.06,-10.754 -9.95,-13.535 -11.94,-36.23 -11.94,-103.496 0,-67.285 1.99,-89.98 11.94,-103.515 4.77,-6.368 11.94,-10.75 23.06,-10.75 10.73,0 17.51,4.382 22.25,10.359 6.4,7.949 9.15,19.902 9.15,32.238 h 34.19 c -0.37,-23.898 -7.95,-44.992 -21.86,-57.726"
         style="fill:#000000;fill-opacity:1;fill-rule:nonzero;stroke:none"
         id="path36"
         inkscape:connector-curvature="0" /><path
         d="m 924.238,1088.73 40.606,-70.33 c 8.027,9.73 12.851,22.2 12.851,35.79 0,31.08 -25.187,56.26 -56.25,56.26 -31.062,0 -56.261,-25.18 -56.261,-56.26 0,-13.6 4.832,-26.06 12.863,-35.8 l 40.605,70.34 c 1.532,2.66 4.055,2.66 5.586,0"
         style="fill:#afb3b6;fill-opacity:1;fill-rule:nonzero;stroke:none"
         id="path38"
         inkscape:connector-curvature="0" /><path
         d="m 768.34,828.395 40.578,70.281 c -3.02,0.504 -6.098,0.832 -9.262,0.832 -31.062,-0.012 -56.258,-25.18 -56.269,-56.25 0.008,-31.078 25.211,-56.27 56.277,-56.25 24.113,-0.02 44.641,15.211 52.637,36.547 h -81.172 c -3.066,0 -4.332,2.172 -2.789,4.84"
         style="fill:#afb3b6;fill-opacity:1;fill-rule:nonzero;stroke:none"
         id="path40"
         inkscape:connector-curvature="0" /><path
         d="m 1043.24,899.496 c -3.16,0 -6.25,-0.324 -9.27,-0.828 l 40.58,-70.273 c 1.54,-2.668 0.27,-4.84 -2.79,-4.84 h -81.166 c 7.98,-21.336 28.516,-36.578 52.646,-36.559 31.06,-0.008 56.25,25.172 56.26,56.242 -0.02,31.071 -25.2,56.27 -56.26,56.258"
         style="fill:#afb3b6;fill-opacity:1;fill-rule:nonzero;stroke:none"
         id="path42"
         inkscape:connector-curvature="0" /><path
         d="M 794.027,847.914 914.59,917.523 V 1056.72 Z"
         style="fill:#004db9;fill-opacity:1;fill-rule:nonzero;stroke:none"
         id="path44"
         inkscape:connector-curvature="0" /><path
         d="M 800.879,836.039 H 1042.01 L 921.445,905.637 Z"
         style="fill:#004db9;fill-opacity:1;fill-rule:nonzero;stroke:none"
         id="path46"
         inkscape:connector-curvature="0" /><path
         d="M 1048.87,847.914 928.301,1056.74 V 917.523 Z"
         style="fill:#004db9;fill-opacity:1;fill-rule:nonzero;stroke:none"
         id="path48"
         inkscape:connector-curvature="0" /><path
         d="m 500.82,283.469 v 43.601 l -10.195,-21.453 h -13.137 l -10.484,21.641 V 283.469 H 453.73 v 70.859 h 13.274 l 17.047,-34.746 16.769,34.746 h 13.262 V 283.469 H 500.82"
         style="fill:#004db9;fill-opacity:1;fill-rule:nonzero;stroke:none"
         id="path50"
         inkscape:connector-curvature="0" /><path
         d="m 596.523,318.898 c 0,-6.164 -0.691,-11.523 -2.07,-16.085 -1.379,-4.559 -3.351,-8.34 -5.906,-11.368 -2.563,-3.007 -5.625,-5.254 -9.203,-6.726 -3.582,-1.485 -7.539,-2.227 -11.864,-2.227 -4.335,0 -8.292,0.742 -11.867,2.227 -3.57,1.472 -6.64,3.719 -9.195,6.726 -2.563,3.028 -4.535,6.809 -5.91,11.368 -1.387,4.562 -2.07,9.921 -2.07,16.085 0,6.161 0.683,11.524 2.07,16.082 1.375,4.551 3.347,8.352 5.91,11.379 2.555,3.008 5.625,5.254 9.195,6.739 3.575,1.472 7.532,2.207 11.867,2.207 4.325,0 8.282,-0.735 11.864,-2.207 3.578,-1.485 6.64,-3.731 9.203,-6.739 2.555,-3.027 4.527,-6.828 5.906,-11.379 1.379,-4.558 2.07,-9.921 2.07,-16.082 z m -13.75,0 c 0,16.719 -5.097,25.086 -15.293,25.086 -10.195,0 -15.292,-8.367 -15.292,-25.086 0,-16.71 5.097,-25.082 15.292,-25.082 10.196,0 15.293,8.372 15.293,25.082"
         style="fill:#004db9;fill-opacity:1;fill-rule:nonzero;stroke:none"
         id="path52"
         inkscape:connector-curvature="0" /><path
         d="m 642.629,342.52 v -59.051 h -13.274 v 59.051 h -17.707 v 11.808 h 48.684 V 342.52 h -17.703"
         style="fill:#004db9;fill-opacity:1;fill-rule:nonzero;stroke:none"
         id="path54"
         inkscape:connector-curvature="0" /><path
         d="m 677.969,283.469 v 8.418 h 11.804 v 54.031 h -11.804 v 8.41 h 36.875 v -8.41 h -11.805 v -54.031 h 11.805 v -8.418 h -36.875"
         style="fill:#004db9;fill-opacity:1;fill-rule:nonzero;stroke:none"
         id="path56"
         inkscape:connector-curvature="0" /><path
         d="m 791.094,318.898 c 0,-6.164 -0.696,-11.523 -2.071,-16.085 -1.378,-4.559 -3.339,-8.34 -5.898,-11.368 -2.559,-3.007 -5.637,-5.254 -9.207,-6.726 -3.578,-1.485 -7.531,-2.227 -11.867,-2.227 -4.328,0 -8.281,0.742 -11.867,2.227 -3.575,1.472 -6.637,3.719 -9.2,6.726 -2.558,3.028 -4.527,6.809 -5.906,11.368 -1.379,4.562 -2.07,9.921 -2.07,16.085 0,6.161 0.691,11.524 2.07,16.082 1.379,4.551 3.348,8.352 5.906,11.379 2.563,3.008 5.625,5.254 9.2,6.739 3.586,1.472 7.539,2.207 11.867,2.207 4.336,0 8.289,-0.735 11.867,-2.207 3.57,-1.485 6.648,-3.731 9.207,-6.739 2.559,-3.027 4.52,-6.828 5.898,-11.379 1.375,-4.558 2.071,-9.921 2.071,-16.082 z m -13.75,0 c 0,16.719 -5.098,25.086 -15.293,25.086 -10.188,0 -15.285,-8.367 -15.285,-25.086 0,-16.71 5.097,-25.082 15.285,-25.082 10.195,0 15.293,8.372 15.293,25.082"
         style="fill:#004db9;fill-opacity:1;fill-rule:nonzero;stroke:none"
         id="path58"
         inkscape:connector-curvature="0" /><path
         d="m 852.645,283.469 -23.946,43.105 V 283.469 H 815.43 v 70.859 h 13.269 l 23.946,-43.203 v 43.203 h 13.261 v -70.859 h -13.261"
         style="fill:#004db9;fill-opacity:1;fill-rule:nonzero;stroke:none"
         id="path60"
         inkscape:connector-curvature="0" /><path
         d="m 966.758,284.648 c -1.504,-0.32 -3.719,-0.769 -6.641,-1.316 -2.91,-0.559 -6.387,-0.84 -10.383,-0.84 -4.058,0 -7.945,0.684 -11.648,2.012 -3.703,1.355 -6.961,3.484 -9.766,6.406 -2.804,2.906 -5.039,6.688 -6.718,11.317 -1.68,4.621 -2.532,10.175 -2.532,16.671 0,6.493 0.852,12.051 2.532,16.68 1.679,4.629 3.914,8.399 6.718,11.317 2.805,2.921 6.063,5.039 9.766,6.398 3.703,1.328 7.59,2.012 11.648,2.012 3.996,0 7.473,-0.285 10.383,-0.84 2.922,-0.559 5.137,-0.996 6.641,-1.32 V 341.73 c -0.988,0.196 -2.102,0.391 -3.352,0.586 -1.238,0.196 -2.566,0.379 -3.98,0.547 -1.399,0.157 -2.844,0.293 -4.281,0.438 -1.446,0.129 -2.809,0.187 -4.122,0.187 -2.234,0 -4.421,-0.371 -6.55,-1.133 -2.121,-0.753 -4.012,-2.07 -5.657,-3.925 -1.64,-1.887 -2.957,-4.407 -3.98,-7.59 -1.008,-3.184 -1.527,-7.168 -1.527,-11.961 0,-4.856 0.519,-8.84 1.527,-11.965 1.023,-3.113 2.34,-5.594 3.98,-7.48 1.645,-1.868 3.536,-3.153 5.657,-3.875 2.129,-0.735 4.316,-1.086 6.55,-1.086 1.313,0 2.676,0.07 4.122,0.187 1.437,0.145 2.882,0.313 4.281,0.496 1.414,0.196 2.742,0.403 3.98,0.598 1.25,0.184 2.364,0.391 3.352,0.586 v -11.692"
         style="fill:#004db9;fill-opacity:1;fill-rule:nonzero;stroke:none"
         id="path62"
         inkscape:connector-curvature="0" /><path
         d="m 1043.89,318.898 c 0,-6.164 -0.69,-11.523 -2.05,-16.085 -1.39,-4.559 -3.36,-8.34 -5.92,-11.368 -2.56,-3.007 -5.63,-5.254 -9.2,-6.726 -3.59,-1.485 -7.54,-2.227 -11.87,-2.227 -4.32,0 -8.29,0.742 -11.86,2.227 -3.576,1.472 -6.642,3.719 -9.213,6.726 -2.547,3.028 -4.519,6.809 -5.906,11.368 -1.375,4.562 -2.062,9.921 -2.062,16.085 0,6.161 0.687,11.524 2.062,16.082 1.387,4.551 3.359,8.352 5.906,11.379 2.571,3.008 5.637,5.254 9.213,6.739 3.57,1.472 7.54,2.207 11.86,2.207 4.33,0 8.28,-0.735 11.87,-2.207 3.57,-1.485 6.64,-3.731 9.2,-6.739 2.56,-3.027 4.53,-6.828 5.92,-11.379 1.36,-4.558 2.05,-9.921 2.05,-16.082 z m -13.75,0 c 0,16.719 -5.09,25.086 -15.29,25.086 -10.19,0 -15.291,-8.367 -15.291,-25.086 0,-16.71 5.101,-25.082 15.291,-25.082 10.2,0 15.29,8.372 15.29,25.082"
         style="fill:#004db9;fill-opacity:1;fill-rule:nonzero;stroke:none"
         id="path64"
         inkscape:connector-curvature="0" /><path
         d="m 1105.44,283.469 -23.94,43.105 v -43.105 h -13.28 v 70.859 h 13.28 l 23.94,-43.203 v 43.203 h 13.26 v -70.859 h -13.26"
         style="fill:#004db9;fill-opacity:1;fill-rule:nonzero;stroke:none"
         id="path66"
         inkscape:connector-curvature="0" /><path
         d="m 1171.53,342.52 v -59.051 h -13.27 v 59.051 h -17.71 v 11.808 h 48.69 V 342.52 h -17.71"
         style="fill:#004db9;fill-opacity:1;fill-rule:nonzero;stroke:none"
         id="path68"
         inkscape:connector-curvature="0" /><path
         d="m 1245.14,283.469 -16.09,30.898 h -4.84 v -30.898 h -13.27 v 70.859 h 23.73 c 3.22,0 6.17,-0.332 8.85,-0.976 2.7,-0.664 5.03,-1.739 7.01,-3.254 1.96,-1.512 3.48,-3.504 4.57,-6.004 1.08,-2.492 1.63,-5.578 1.63,-9.25 0,-5.645 -1.29,-9.969 -3.84,-12.989 -2.55,-3.027 -5.86,-5.085 -9.91,-6.199 l 16.72,-32.187 z m -2.16,51.14 c 0,3.164 -0.92,5.352 -2.73,6.575 -1.8,1.218 -4.49,1.824 -8.04,1.824 h -8 v -17.481 h 6.21 c 4.55,0 7.78,0.684 9.69,2.024 1.9,1.347 2.87,3.711 2.87,7.058"
         style="fill:#004db9;fill-opacity:1;fill-rule:nonzero;stroke:none"
         id="path70"
         inkscape:connector-curvature="0" /><path
         d="m 1336.19,318.898 c 0,-6.164 -0.69,-11.523 -2.08,-16.085 -1.36,-4.559 -3.34,-8.34 -5.9,-11.368 -2.56,-3.007 -5.62,-5.254 -9.21,-6.726 -3.57,-1.485 -7.53,-2.227 -11.85,-2.227 -4.35,0 -8.28,0.742 -11.87,2.227 -3.57,1.472 -6.65,3.719 -9.19,6.726 -2.57,3.028 -4.54,6.809 -5.91,11.368 -1.39,4.562 -2.07,9.921 -2.07,16.085 0,6.161 0.68,11.524 2.07,16.082 1.37,4.551 3.34,8.352 5.91,11.379 2.54,3.008 5.62,5.254 9.19,6.739 3.59,1.472 7.52,2.207 11.87,2.207 4.32,0 8.28,-0.735 11.85,-2.207 3.59,-1.485 6.65,-3.731 9.21,-6.739 2.56,-3.027 4.54,-6.828 5.9,-11.379 1.39,-4.558 2.08,-9.921 2.08,-16.082 z m -13.76,0 c 0,16.719 -5.09,25.086 -15.28,25.086 -10.2,0 -15.29,-8.367 -15.29,-25.086 0,-16.71 5.09,-25.082 15.29,-25.082 10.19,0 15.28,8.372 15.28,25.082"
         style="fill:#004db9;fill-opacity:1;fill-rule:nonzero;stroke:none"
         id="path72"
         inkscape:connector-curvature="0" /><path
         d="m 1360.52,283.469 v 70.859 h 13.27 v -59.531 h 21.64 v -11.328 h -34.91"
         style="fill:#004db9;fill-opacity:1;fill-rule:nonzero;stroke:none"
         id="path74"
         inkscape:connector-curvature="0" /></g></g></svg>